<svg id="Layer_1" enable-background="new 0 0 512 512" viewBox="0 0 512 512" xmlns="http://www.w3.org/2000/svg"><g><g><g><path d="m458.667 128h-106.667c-5.888 0-10.667 4.779-10.667 10.667v21.333c0 17.643-14.357 32-32 32h-85.333c-17.643 0-32-14.357-32-32v-21.333c0-5.888-4.779-10.667-10.667-10.667h-128c-29.418 0-53.333 23.936-53.333 53.333v234.667c0 29.397 23.915 53.333 53.333 53.333h405.333c29.419 0 53.334-23.936 53.334-53.333v-234.667c0-29.397-23.915-53.333-53.333-53.333zm-192 298.667h-213.334c-5.888 0-10.667-4.779-10.667-10.667 0-25.728 18.176-48 44.181-54.165l32-7.595 1.344-5.163c-7.637-8.469-13.141-19.051-15.573-29.973-6.528-2.752-10.965-8.363-11.883-15.147l-2.304-17.643c-.725-5.419.96-10.944 4.608-15.125 1.323-1.493 2.795-2.752 4.437-3.776-.576-5.163-1.173-11.115-1.173-14.421 0-27.157 15.659-40.384 49.216-41.451 14.827-8.875 30.123-8.875 36.885-8.875 22.955 0 34.432 9.707 40.043 17.835 12.587 18.261 3.349 30.955-1.216 35.563l-1.771 1.685-.491 9.92c1.472.981 2.859 2.176 4.032 3.563 3.605 4.16 5.269 9.643 4.565 15.061l-2.304 17.621c-.875 6.571-5.035 12.032-10.752 14.869-2.496 11.456-8.32 22.464-16.469 31.125l1.131 4.309 32 7.595c26.027 6.187 44.181 28.437 44.181 54.144-.02 5.911-4.798 10.711-10.686 10.711zm192-42.667h-149.334c-5.888 0-10.667-4.779-10.667-10.667s4.779-10.667 10.667-10.667h149.333c5.888 0 10.667 4.779 10.667 10.667s-4.778 10.667-10.666 10.667zm0-64h-149.334c-5.888 0-10.667-4.779-10.667-10.667s4.779-10.667 10.667-10.667h149.333c5.888 0 10.667 4.779 10.667 10.667s-4.778 10.667-10.666 10.667zm0-64h-149.334c-5.888 0-10.667-4.779-10.667-10.667s4.779-10.667 10.667-10.667h149.333c5.888 0 10.667 4.779 10.667 10.667s-4.778 10.667-10.666 10.667z"/><path d="m224 170.667h85.333c5.888 0 10.667-4.779 10.667-10.667v-64c0-29.397-23.915-53.333-53.333-53.333-29.419 0-53.333 23.936-53.333 53.333v64c-.001 5.888 4.778 10.667 10.666 10.667zm42.667-85.334c5.888 0 10.667 4.779 10.667 10.667s-4.779 10.667-10.667 10.667-10.667-4.779-10.667-10.667 4.779-10.667 10.667-10.667z"/></g></g></g><g/><g/><g/><g/><g/><g/><g/><g/><g/><g/><g/><g/><g/><g/><g/></svg>